HIERARCHY
ROOT pelvis
{
  OFFSET 0 100 0
  CHANNELS 6 Xposition Yposition Zposition Zrotation Xrotation Yrotation
  JOINT pelvis_right_femur
  {
    OFFSET -10.78128 -3.44521 -0.5502486
    CHANNELS 3 Zrotation Xrotation Yrotation
    JOINT right_femur_tibia
    {
      OFFSET -0.8047443 -44.0398 -0.1307829
      CHANNELS 3 Zrotation Xrotation Yrotation
      JOINT right_tibia_foot
      {
        OFFSET 3.006224 -47.83518 -5
        CHANNELS 3 Zrotation Xrotation Yrotation
        End Site
        {
          OFFSET 0 -5 15
        }
      }
    }
  }
  JOINT pelvis_left_femur
  {
    OFFSET 10.78128 -3.44521 -0.5502486
    CHANNELS 3 Zrotation Xrotation Yrotation
    JOINT left_femur_tibia
    {
      OFFSET 0.8047443 -44.0398 -0.1307829
      CHANNELS 3 Zrotation Xrotation Yrotation
      JOINT left_tibia_foot
      {
        OFFSET -4.370144 -48.10324 -4.275266
        CHANNELS 3 Zrotation Xrotation Yrotation
        End Site
        {
          OFFSET 0 -5 15
        }
      }
    }
  }
  JOINT pelvis_spine1
  {
    OFFSET 0 6.468898 -3.129235
    CHANNELS 3 Zrotation Xrotation Yrotation
    JOINT spine1
    {
      OFFSET 0 23.15396 4.99043
      CHANNELS 3 Zrotation Xrotation Yrotation
      JOINT spine2
      {
        OFFSET 0 20.79997 -5.064912
        CHANNELS 3 Zrotation Xrotation Yrotation
        JOINT neck
        {
          OFFSET 0 14.38658 9.616178
          CHANNELS 3 Zrotation Xrotation Yrotation
          End Site
          {
            OFFSET 0 20 0
          }
        }
      }
      JOINT right_manubrium
      {
        OFFSET -5.722621 16.35077 3.967754
        CHANNELS 3 Zrotation Xrotation Yrotation
        JOINT right_clavicle
        {
          OFFSET -13.16364 1.694482 -4.693211
          CHANNELS 3 Zrotation Xrotation Yrotation
          JOINT right_humerus
          {
            OFFSET -28.5034 -0.3100689 -2.792744
            CHANNELS 3 Zrotation Xrotation Yrotation
            JOINT right_radius
            {
              OFFSET -25.15693 0.02248979 -1.271978
              CHANNELS 3 Zrotation Xrotation Yrotation
              End Site
              {
                OFFSET -15 0 0
              }
            }
          }
        }
      }
      JOINT left_manubrium
      {
        OFFSET 5.722621 16.35077 3.967754
        CHANNELS 3 Zrotation Xrotation Yrotation
        JOINT left_clavicle
        {
          OFFSET 13.16364 1.694482 -4.693211
          CHANNELS 3 Zrotation Xrotation Yrotation
          JOINT left_humerus
          {
            OFFSET 29.39168 -1.063119 -2.237045
            CHANNELS 3 Zrotation Xrotation Yrotation
            JOINT left_radius
            {
              OFFSET 24.59957 -0.9528479 0.9047498
              CHANNELS 3 Zrotation Xrotation Yrotation
              End Site
              {
                OFFSET 15 -0 -0
              }
            }
          }
        }
      }
    }
  }
}
MOTION
Frames: 11
Frame Time: 0.0416666666667
0 103.5113 0 1.664966 -2.044087 0.01273257 0.2636126 -11.87855 8.306311 -0 40.73837 -0 -6.525747 -13.6029 -3.053913 -7.150548 11.92556 -26.383 -0 4.833057 -0 -0.2875827 -20.19326 25.60152 -1.744663 -1.35322 2.731844 2.181632 5.727371 -7.520327 1.439158 23.88712 7.107671 3.862981 -23.0218 8.634357 5.55709 -17.49484 10.35643 87.76642 35.29698 -23.0749 -0 0 14.90104 -6.227734 8.476865 2.007151 5.082647 -19.26001 -2.921313 -101.3357 42.2684 28.44952 0 0 -20.46715 -10.57517 18.91685 28.04787
0.2010347 103.4981 1.347295 1.652431 -1.617117 -0.01075183 0.363289 -12.80049 9.004453 -0 41.30842 -0 -5.5343 -14.91361 -3.421312 -7.176467 12.30741 -26.86347 -0 4.162715 -0 -0.6171313 -20.6826 25.60518 -1.754468 -1.327147 2.681063 2.200809 5.720366 -7.552618 1.429025 23.88248 7.154531 3.86864 -23.0669 8.666554 5.56707 -17.38872 10.36342 87.88589 35.423 -23.2122 -0 0 14.64083 -6.329243 8.579694 2.081379 5.078263 -19.30407 -2.921057 -101.0517 42.31179 28.10445 0 0 -20.77487 -10.56637 18.87738 28.06032
0.394654 103.2845 2.864395 1.313648 -1.534956 -0.04081684 1.743662 -16.55995 7.57214 -0 37.14227 -0 -6.524191 -12.34831 -2.81015 -7.013081 12.56325 -25.02692 -0 5.206189 -0 1.87994 -21.07814 25.34669 -1.833972 -1.241241 3.085811 2.236349 6.334732 -7.554439 1.197239 23.41143 7.228801 3.897431 -23.37166 8.364484 5.558411 -17.70543 10.68505 87.28886 35.52168 -22.11354 -0 0 14.55899 -7.830639 8.895975 3.584105 4.887372 -19.41115 -2.897311 -99.23534 40.05661 26.96748 0 0 -20.70151 -8.750633 17.63877 25.92927
0.5764842 102.9297 4.522685 1.094376 -1.065305 -0.05268505 2.544671 -19.72908 6.78524 -0 34.08394 -0 -6.649923 -10.70454 -2.33217 -6.965195 12.92428 -24.03959 -0 5.618303 -0 2.726236 -21.97514 24.89714 -1.879904 -1.222694 3.217707 2.32856 6.622044 -7.666763 1.072156 23.14721 7.28454 3.900011 -23.68685 8.26311 5.525402 -17.7978 10.82384 87.26812 35.46995 -21.98555 -0 0 14.28818 -8.252665 8.789434 4.158058 4.846931 -19.57949 -2.863709 -98.19076 39.01861 26.11697 0 0 -21.07449 -7.701786 16.92883 24.7215
0.7501548 102.4333 6.381045 0.7764283 -0.2665798 -0.01497094 3.518467 -23.38593 6.333354 -0 30.95118 -0 -6.296108 -9.656419 -2.093929 -6.842264 13.38446 -22.99983 -0 5.764789 -0 3.38437 -22.8591 24.15913 -1.92168 -1.189884 3.30527 2.409572 6.865515 -7.769687 0.9664478 22.9245 7.348027 3.900735 -23.94633 8.189267 5.502017 -17.81676 10.94582 87.29407 35.49765 -21.91266 -0 0 13.9326 -8.700956 8.79118 4.698135 4.806027 -19.7387 -2.840289 -97.18952 38.11723 25.25103 0 0 -21.51876 -6.825151 16.3076 23.7129
0.917647 101.799 8.522596 0.428728 0.7685547 0.09952306 4.408893 -27.01651 5.97876 -0 27.72716 -0 -5.705907 -8.639389 -1.868351 -6.7063 13.8461 -22.00069 -0 5.865377 -0 3.396852 -23.82309 23.07517 -1.954647 -1.16872 3.326114 2.500243 7.030859 -7.893876 0.8870119 22.75353 7.41063 3.89606 -24.19711 8.164612 5.476735 -17.77383 11.0269 87.4507 35.52035 -22.05569 -0 0 13.52008 -8.929546 8.743403 5.035971 4.79538 -19.90905 -2.816931 -96.34719 37.50211 24.43238 0 0 -22.07436 -6.144574 15.82973 22.9408
1.082348 101.0375 11.06663 0.02196786 1.975346 0.3107363 5.251944 -30.49491 5.635182 -0 24.3314 -0 -5.029856 -7.534959 -1.661463 -6.520863 14.29029 -20.91176 -0 6.162834 -0 2.835003 -24.65616 21.56534 -1.984106 -1.147119 3.311403 2.594806 7.162859 -8.028592 0.8190881 22.60562 7.477705 3.888846 -24.43864 8.164052 5.452464 -17.68673 11.09223 87.67525 35.5651 -22.29976 -0 0 13.04696 -9.098344 8.712009 5.305873 4.794263 -20.08869 -2.796551 -95.53531 37.00364 23.58935 0 0 -22.71547 -5.556438 15.41361 22.28092
1.247208 100.1716 14.14146 -0.4400305 3.227569 0.6272794 5.995423 -33.49554 5.242666 -0 20.915 -0 -4.427399 -6.286437 -1.484851 -6.2734 14.70537 -19.71513 -0 6.955258 -0 1.706933 -25.13493 19.63489 -2.011059 -1.124236 3.27112 2.692461 7.27359 -8.171894 0.7587773 22.47248 7.548502 3.87954 -24.67288 8.179879 5.428763 -17.56578 11.14773 87.95087 35.62813 -22.61678 -0 0 12.52322 -9.23529 8.701024 5.534732 4.79873 -20.27747 -2.779465 -94.73177 36.57685 22.71561 0 0 -23.42645 -5.029241 15.038 21.69519
1.415846 99.25543 17.86467 -0.9542045 4.350615 1.040487 6.634922 -35.65365 4.805572 -0 17.82365 -0 -4.067851 -4.957704 -1.39464 -5.949069 15.0773 -18.40431 -0 8.681232 -0 0.1908722 -24.93386 17.38516 -2.037101 -1.094866 3.220374 2.787322 7.381134 -8.314886 0.7014994 22.34521 7.62208 3.869271 -24.88864 8.19864 5.407244 -17.42111 11.20302 88.2415 35.71711 -22.94543 -0 0 11.96144 -9.412829 8.741083 5.777696 4.799319 -20.47012 -2.769096 -93.90463 36.1505 21.80514 0 0 -24.17428 -4.531928 14.67372 21.14313
1.593237 98.39272 22.31067 -1.49807 5.134786 1.517512 7.188858 -36.57799 4.371279 -0 15.5474 -0 -4.130574 -3.668767 -1.434013 -5.550005 15.33596 -17.01635 -0 11.87896 -0 -1.413367 -23.73719 15.03998 -2.062758 -1.055632 3.172342 2.871438 7.496493 -8.446183 0.6455984 22.22122 7.695063 3.859329 -25.06785 8.208458 5.389931 -17.26404 11.26359 88.50975 35.83434 -23.2281 -0 0 11.38864 -9.68443 8.854915 6.070308 4.788942 -20.65709 -2.769498 -93.05636 35.68094 20.88177 0 0 -24.90944 -4.056769 14.3083 20.61058
1.785553 97.74594 27.47983 -2.029389 5.395304 2.000641 7.684809 -35.93624 3.993983 -0 14.51608 -0 -4.772854 -2.560912 -1.591595 -5.091224 15.28299 -15.61325 -0 17.07067 -0 -2.802963 -21.34781 12.86646 -2.088005 -1.003656 3.141822 2.933312 7.627331 -8.549542 0.5912005 22.10225 7.762232 3.851689 -25.18406 8.196782 5.379799 -17.10943 11.3329 88.70791 35.97957 -23.39623 -0 0 10.84901 -10.10179 9.063968 6.441845 4.760873 -20.82265 -2.785572 -92.21484 35.13894 19.99655 0 0 -25.55894 -3.612393 13.93928 20.10122
